<svg width="754" height="364" viewBox="0 0 754 364" fill="none" xmlns="http://www.w3.org/2000/svg">
<path d="M247.5 189.5C216.562 181.679 188.563 186.481 148 189.5C158.027 184.671 163.3 177.565 164 167V74C162.995 63.2767 158.774 58.9338 150.5 51.5L225.5 52.5C240.953 50.8743 247.782 46.824 259 38C245.749 58.8538 239.386 70.3919 235.5 90C229.843 80.0933 225.833 77.3192 217.5 76.5H192.5V106.5H215C221.899 105.535 225.075 103.52 230 98.5C227.294 114.699 226.289 123.85 227 140.5C221.247 132.585 217.436 129.597 208.5 128.5H192.5V163.5H222C232.56 159.386 237.354 153.345 244.5 138.5C243.913 161.746 242.739 171.136 247.5 189.5Z" fill="url(#paint0_linear_800_13346)"/>
<path d="M473.5 190C473.5 190 430.502 186.383 388 190C397.833 182.922 399.437 174.115 399.5 166.5V73.5C398.495 62.7767 394.274 58.4338 386 51C386 51 434.047 54.1257 449.5 52.5C464.953 50.8743 475.5 38 475.5 38C469.865 55.6454 468.237 66.5944 471 89.5C471 89.5 461.333 76.8192 453 76H428V106H450.5C456.443 104.789 459.29 102.909 463.5 98L458.5 140.5C458.5 140.5 452.936 129.097 444 128H428V163H457.5C467.063 162.09 476.016 148.878 478 145.5C471.927 165.708 471.531 169.468 473.5 190Z" fill="url(#paint1_linear_800_13346)"/>
<path d="M48 190C84.5533 172.651 70.1642 93.4551 68.5 0C76.3476 35.8908 99.9021 57.4487 115 67C104.511 69.6238 100.276 71.4627 100 76V163.5C124.241 166.368 134.651 156.63 148 123C143.885 147.987 142.522 163.622 143 190C106.773 187.488 85.7825 185.388 48 190Z" fill="url(#paint2_linear_800_13346)"/>
<path d="M581.5 349C545.273 346.488 529.783 344.388 492 349C520.472 335.48 508.38 297.993 507.5 235C506.506 223.548 499.408 219.081 487 211C511.877 215.602 525.992 225.5 554 219C543.511 221.624 538.776 230.463 538.5 235V322.5C562.741 325.368 574.651 321.13 588 287.5C583.885 312.487 581.022 322.622 581.5 349Z" fill="url(#paint3_linear_800_13346)"/>
<path d="M249.5 120.5C249.5 158.884 282.855 190 324 190C345.036 188.955 376.062 186.685 382 190C374.418 183.928 372.073 177.111 372 169V132.5C372.158 126.214 376.209 123.214 384.5 118C361.254 120.062 347.668 119.75 323 118C340.884 125.671 344.372 129.658 345 136.5C346 155 347.433 170.78 325 170C299.871 170 279.5 148.062 279.5 121C279.5 93.938 299.871 72 325 72C335.522 72.1221 354.645 79.1543 358 99.5C361.09 78.6218 364.618 66.5388 374 43.5C365.94 52.2269 337.405 51.3144 324 51C282.855 51 249.5 82.1162 249.5 120.5Z" fill="url(#paint4_linear_800_13346)"/>
<path d="M479 190C500.55 186.347 512.893 186.52 535.5 190C522.527 181.604 517.826 176.539 517.5 166.5L516.5 95L601 198L604 31C594.714 49.6655 586.905 56.1721 563.5 52.5C575.779 56.0348 580.848 58.4519 581.5 65V133.5L514 52.5C502.131 53.3911 495.349 53.2696 483.5 52.5C493.046 57.645 496.948 60.811 497 68L496 166.5C495.28 178.236 489.202 182.364 479 190Z" fill="url(#paint5_linear_800_13346)"/>
<path fill-rule="evenodd" clip-rule="evenodd" d="M700.5 55.1363C726 59.6641 753.5 88.3199 753.5 119.127C753.5 158.063 718.13 189.627 674.5 189.627H607.5C623.096 178.953 625.372 173.27 625.5 165.127V75.1271C626.055 65.5101 619.527 60.8081 607.5 52.5343C643.803 52.2215 675 50.6085 700.5 55.1363ZM668.015 73.6281C663.693 73.6281 659.5 74.1489 655.5 75.1281V167.128C659.5 168.107 663.693 168.628 668.015 168.628C695.629 168.628 718.015 147.362 718.015 121.128C718.015 94.8946 695.629 73.6282 668.015 73.6281Z" fill="url(#paint6_linear_800_13346)"/>
<path fill-rule="evenodd" clip-rule="evenodd" d="M681.5 214.136C707 218.664 734.5 247.32 734.5 278.127C734.5 317.063 699.13 348.627 655.5 348.627H588.5C604.096 337.953 606.372 332.27 606.5 324.127V234.127C607.055 224.51 600.527 219.808 588.5 211.534C624.803 211.222 656 209.608 681.5 214.136ZM649.015 232.628C644.693 232.628 640.5 233.149 636.5 234.128V326.128C640.5 327.107 644.693 327.628 649.015 327.628C676.629 327.628 699.015 306.362 699.015 280.128C699.015 253.895 676.629 232.628 649.015 232.628Z" fill="url(#paint7_linear_800_13346)"/>
<path d="M110.5 211C71.97 232.928 46.736 222.321 0 192C23.2679 218.629 38.6629 230.113 68 247.5L109 348L150 272.5L180.5 348L232 234C236.212 224.109 242.511 219.46 253 211H196.5C206.378 216.979 211.475 220.463 209 230L184.5 286.5L155.5 211L113.5 286.5L99.5 238C97.8493 227.375 101.173 221.458 110.5 211Z" fill="url(#paint8_linear_800_13346)"/>
<path fill-rule="evenodd" clip-rule="evenodd" d="M301 211C338.832 211 369.5 241.668 369.5 279.5C369.5 317.332 338.832 348 301 348C263.168 348 232.5 317.332 232.5 279.5C232.5 241.668 263.168 211 301 211ZM301.5 230C279.961 230 262.5 252.162 262.5 279.5C262.5 306.838 279.961 329 301.5 329C323.039 329 340.5 306.838 340.5 279.5C340.5 252.162 323.039 230 301.5 230Z" fill="url(#paint9_linear_800_13346)"/>
<path fill-rule="evenodd" clip-rule="evenodd" d="M431 211C455.577 211 475.5 229.356 475.5 252C475.5 267.832 464.76 281.169 450.5 288C467 297.5 477 340 490.5 351.5C497.5 357.463 518 363.5 518 363.5C518 363.5 467.542 366.494 460.5 348C445.84 309.5 433 296.5 414 288V324.5C414.447 333.65 415.175 338.62 429 348C404.614 343.907 390.886 344.621 366.5 348C379.153 339.633 382.742 334.59 383 324.5V233C382.664 224.552 379.051 219.671 366.5 211H431ZM417.5 232C415.791 232 415.619 232.147 414 232.427V279.573C415.619 279.853 415.791 280 417.5 280C432.136 280 444 269.255 444 256C444 242.745 432.136 232 417.5 232Z" fill="url(#paint10_linear_800_13346)"/>
<defs>
<linearGradient id="paint0_linear_800_13346" x1="377.68" y1="363.679" x2="377.68" y2="2.97495e-06" gradientUnits="userSpaceOnUse">
<stop stop-color="#563D17"/>
<stop offset="0.394231" stop-color="#F4B14A"/>
<stop offset="0.644231" stop-color="#F4B14A"/>
<stop offset="1" stop-color="#FFDCA7"/>
</linearGradient>
<linearGradient id="paint1_linear_800_13346" x1="377.68" y1="363.679" x2="377.68" y2="2.97495e-06" gradientUnits="userSpaceOnUse">
<stop stop-color="#563D17"/>
<stop offset="0.394231" stop-color="#F4B14A"/>
<stop offset="0.644231" stop-color="#F4B14A"/>
<stop offset="1" stop-color="#FFDCA7"/>
</linearGradient>
<linearGradient id="paint2_linear_800_13346" x1="377.68" y1="363.679" x2="377.68" y2="2.97495e-06" gradientUnits="userSpaceOnUse">
<stop stop-color="#563D17"/>
<stop offset="0.394231" stop-color="#F4B14A"/>
<stop offset="0.644231" stop-color="#F4B14A"/>
<stop offset="1" stop-color="#FFDCA7"/>
</linearGradient>
<linearGradient id="paint3_linear_800_13346" x1="377.68" y1="363.679" x2="377.68" y2="2.97495e-06" gradientUnits="userSpaceOnUse">
<stop stop-color="#563D17"/>
<stop offset="0.394231" stop-color="#F4B14A"/>
<stop offset="0.644231" stop-color="#F4B14A"/>
<stop offset="1" stop-color="#FFDCA7"/>
</linearGradient>
<linearGradient id="paint4_linear_800_13346" x1="377.68" y1="363.679" x2="377.68" y2="2.97495e-06" gradientUnits="userSpaceOnUse">
<stop stop-color="#563D17"/>
<stop offset="0.394231" stop-color="#F4B14A"/>
<stop offset="0.644231" stop-color="#F4B14A"/>
<stop offset="1" stop-color="#FFDCA7"/>
</linearGradient>
<linearGradient id="paint5_linear_800_13346" x1="377.68" y1="363.679" x2="377.68" y2="2.97495e-06" gradientUnits="userSpaceOnUse">
<stop stop-color="#563D17"/>
<stop offset="0.394231" stop-color="#F4B14A"/>
<stop offset="0.644231" stop-color="#F4B14A"/>
<stop offset="1" stop-color="#FFDCA7"/>
</linearGradient>
<linearGradient id="paint6_linear_800_13346" x1="377.68" y1="363.679" x2="377.68" y2="2.97495e-06" gradientUnits="userSpaceOnUse">
<stop stop-color="#563D17"/>
<stop offset="0.394231" stop-color="#F4B14A"/>
<stop offset="0.644231" stop-color="#F4B14A"/>
<stop offset="1" stop-color="#FFDCA7"/>
</linearGradient>
<linearGradient id="paint7_linear_800_13346" x1="377.68" y1="363.679" x2="377.68" y2="2.97495e-06" gradientUnits="userSpaceOnUse">
<stop stop-color="#563D17"/>
<stop offset="0.394231" stop-color="#F4B14A"/>
<stop offset="0.644231" stop-color="#F4B14A"/>
<stop offset="1" stop-color="#FFDCA7"/>
</linearGradient>
<linearGradient id="paint8_linear_800_13346" x1="377.68" y1="363.679" x2="377.68" y2="2.97495e-06" gradientUnits="userSpaceOnUse">
<stop stop-color="#563D17"/>
<stop offset="0.394231" stop-color="#F4B14A"/>
<stop offset="0.644231" stop-color="#F4B14A"/>
<stop offset="1" stop-color="#FFDCA7"/>
</linearGradient>
<linearGradient id="paint9_linear_800_13346" x1="377.68" y1="363.679" x2="377.68" y2="2.97495e-06" gradientUnits="userSpaceOnUse">
<stop stop-color="#563D17"/>
<stop offset="0.394231" stop-color="#F4B14A"/>
<stop offset="0.644231" stop-color="#F4B14A"/>
<stop offset="1" stop-color="#FFDCA7"/>
</linearGradient>
<linearGradient id="paint10_linear_800_13346" x1="377.68" y1="363.679" x2="377.68" y2="2.97495e-06" gradientUnits="userSpaceOnUse">
<stop stop-color="#563D17"/>
<stop offset="0.394231" stop-color="#F4B14A"/>
<stop offset="0.644231" stop-color="#F4B14A"/>
<stop offset="1" stop-color="#FFDCA7"/>
</linearGradient>
</defs>
</svg>
