<svg width="1440" height="207" viewBox="0 0 1440 207" fill="none" xmlns="http://www.w3.org/2000/svg">
<path d="M199.5 189.5C168.562 181.679 140.563 186.481 100 189.5C110.027 184.671 115.3 177.565 116 167V74C114.995 63.2767 110.774 58.9338 102.5 51.5L177.5 52.5C192.953 50.8743 199.782 46.824 211 38C197.749 58.8538 191.386 70.3919 187.5 90C181.843 80.0933 177.833 77.3192 169.5 76.5H144.5V106.5H167C173.899 105.535 177.075 103.52 182 98.5C179.294 114.699 178.289 123.85 179 140.5C173.247 132.585 169.436 129.597 160.5 128.5H144.5V163.5H174C184.56 159.386 189.354 153.345 196.5 138.5C195.913 161.746 194.739 171.136 199.5 189.5Z" fill="url(#paint0_linear_800_13361)"/>
<path d="M425.5 190C425.5 190 382.502 186.383 340 190C349.833 182.922 351.437 174.115 351.5 166.5V73.5C350.495 62.7767 346.274 58.4338 338 51C338 51 386.047 54.1257 401.5 52.5C416.953 50.8743 427.5 38 427.5 38C421.865 55.6454 420.237 66.5944 423 89.5C423 89.5 413.333 76.8192 405 76H380V106H402.5C408.443 104.789 411.29 102.909 415.5 98L410.5 140.5C410.5 140.5 404.936 129.097 396 128H380V163H409.5C419.063 162.09 428.016 148.878 430 145.5C423.927 165.708 423.531 169.468 425.5 190Z" fill="url(#paint1_linear_800_13361)"/>
<path d="M0 190C36.5533 172.651 22.1642 93.4551 20.5 0C28.3476 35.8908 51.9021 57.4487 67 67C56.5114 69.6238 52.2763 71.4627 52 76V163.5C76.2409 166.368 86.6512 156.63 100 123C95.8854 147.987 94.5224 163.622 95 190C58.7725 187.488 37.7826 185.388 0 190Z" fill="url(#paint2_linear_800_13361)"/>
<path d="M1287 192C1250.77 189.488 1235.28 187.388 1197.5 192C1225.97 178.48 1213.88 140.993 1213 78C1212.01 66.548 1204.91 62.0807 1192.5 54C1217.38 58.602 1231.49 68.5003 1259.5 62C1249.01 64.6238 1244.28 73.4627 1244 78V165.5C1268.24 168.368 1280.15 164.13 1293.5 130.5C1289.39 155.487 1286.52 165.622 1287 192Z" fill="url(#paint3_linear_800_13361)"/>
<path d="M201.5 120.5C201.5 158.884 234.855 190 276 190C297.036 188.955 328.062 186.685 334 190C326.418 183.928 324.073 177.111 324 169V132.5C324.158 126.214 328.209 123.214 336.5 118C313.254 120.062 299.668 119.75 275 118C292.884 125.671 296.372 129.658 297 136.5C298 155 299.433 170.78 277 170C251.871 170 231.5 148.062 231.5 121C231.5 93.938 251.871 72 277 72C287.522 72.1221 306.645 79.1543 310 99.5C313.09 78.6218 316.618 66.5388 326 43.5C317.94 52.2269 289.405 51.3144 276 51C234.855 51 201.5 82.1162 201.5 120.5Z" fill="url(#paint4_linear_800_13361)"/>
<path d="M431 190C452.55 186.347 464.893 186.52 487.5 190C474.527 181.604 469.826 176.539 469.5 166.5L468.5 95L553 198L556 31C546.714 49.6655 538.905 56.1721 515.5 52.5C527.779 56.0348 532.848 58.4519 533.5 65V133.5L466 52.5C454.131 53.3911 447.349 53.2696 435.5 52.5C445.046 57.645 448.948 60.811 449 68L448 166.5C447.28 178.236 441.202 182.364 431 190Z" fill="url(#paint5_linear_800_13361)"/>
<path fill-rule="evenodd" clip-rule="evenodd" d="M652.5 55.1363C678 59.6641 705.5 88.3199 705.5 119.127C705.5 158.063 670.13 189.627 626.5 189.627H559.5C575.096 178.953 577.372 173.27 577.5 165.127V75.1271C578.055 65.5101 571.527 60.8081 559.5 52.5343C595.803 52.2215 627 50.6085 652.5 55.1363ZM620.015 73.6281C615.693 73.6281 611.5 74.1489 607.5 75.1281V167.128C611.5 168.107 615.693 168.628 620.015 168.628C647.629 168.628 670.015 147.362 670.015 121.128C670.015 94.8946 647.629 73.6282 620.015 73.6281Z" fill="url(#paint6_linear_800_13361)"/>
<path fill-rule="evenodd" clip-rule="evenodd" d="M1387 57.1363C1412.5 61.6641 1440 90.3199 1440 121.127C1440 160.063 1404.63 191.627 1361 191.627H1294C1309.6 180.953 1311.87 175.27 1312 167.127V77.1271C1312.56 67.5101 1306.03 62.8081 1294 54.5343C1330.3 54.2215 1361.5 52.6085 1387 57.1363ZM1354.51 75.6281C1350.19 75.6281 1346 76.1489 1342 77.1281V169.128C1346 170.107 1350.19 170.628 1354.51 170.628C1382.13 170.628 1404.51 149.362 1404.51 123.128C1404.51 96.8946 1382.13 75.6282 1354.51 75.6281Z" fill="url(#paint7_linear_800_13361)"/>
<path d="M816 54C777.47 75.9275 752.236 65.3207 705.5 35C728.768 61.6291 744.163 73.1131 773.5 90.5L814.5 191L855.5 115.5L886 191L937.5 77C941.712 67.1089 948.011 62.4598 958.5 54H902C911.878 59.9788 916.975 63.4631 914.5 73L890 129.5L861 54L819 129.5L805 81C803.349 70.3754 806.673 64.4581 816 54Z" fill="url(#paint8_linear_800_13361)"/>
<path fill-rule="evenodd" clip-rule="evenodd" d="M1006.5 54C1044.33 54 1075 84.6685 1075 122.5C1075 160.332 1044.33 191 1006.5 191C968.669 191 938 160.332 938 122.5C938 84.6685 968.669 54 1006.5 54ZM1007 73C985.461 73 968 95.1619 968 122.5C968 149.838 985.461 172 1007 172C1028.54 172 1046 149.838 1046 122.5C1046 95.1619 1028.54 73 1007 73Z" fill="url(#paint9_linear_800_13361)"/>
<path fill-rule="evenodd" clip-rule="evenodd" d="M1136.5 54C1161.08 54 1181 72.3563 1181 95C1181 110.832 1170.26 124.169 1156 131C1172.5 140.5 1182.5 183 1196 194.5C1203 200.463 1223.5 206.5 1223.5 206.5C1223.5 206.5 1173.04 209.494 1166 191C1151.34 152.5 1138.5 139.5 1119.5 131V167.5C1119.95 176.65 1120.68 181.62 1134.5 191C1110.11 186.907 1096.39 187.621 1072 191C1084.65 182.633 1088.24 177.59 1088.5 167.5V76C1088.16 67.5525 1084.55 62.6712 1072 54H1136.5ZM1123 75C1121.29 75 1121.12 74.9276 1119.5 75.2076V122.354C1121.12 122.634 1121.29 123 1123 123C1137.64 123 1149.5 112.255 1149.5 99C1149.5 85.7452 1137.64 75 1123 75Z" fill="url(#paint10_linear_800_13361)"/>
<defs>
<linearGradient id="paint0_linear_800_13361" x1="721.778" y1="206.679" x2="721.778" y2="1.69066e-06" gradientUnits="userSpaceOnUse">
<stop stop-color="#563D17"/>
<stop offset="0.461538" stop-color="#F4B14A"/>
<stop offset="1" stop-color="#FFDCA7"/>
</linearGradient>
<linearGradient id="paint1_linear_800_13361" x1="721.778" y1="206.679" x2="721.778" y2="1.69066e-06" gradientUnits="userSpaceOnUse">
<stop stop-color="#563D17"/>
<stop offset="0.461538" stop-color="#F4B14A"/>
<stop offset="1" stop-color="#FFDCA7"/>
</linearGradient>
<linearGradient id="paint2_linear_800_13361" x1="721.778" y1="206.679" x2="721.778" y2="1.69066e-06" gradientUnits="userSpaceOnUse">
<stop stop-color="#563D17"/>
<stop offset="0.461538" stop-color="#F4B14A"/>
<stop offset="1" stop-color="#FFDCA7"/>
</linearGradient>
<linearGradient id="paint3_linear_800_13361" x1="721.778" y1="206.679" x2="721.778" y2="1.69066e-06" gradientUnits="userSpaceOnUse">
<stop stop-color="#563D17"/>
<stop offset="0.461538" stop-color="#F4B14A"/>
<stop offset="1" stop-color="#FFDCA7"/>
</linearGradient>
<linearGradient id="paint4_linear_800_13361" x1="721.778" y1="206.679" x2="721.778" y2="1.69066e-06" gradientUnits="userSpaceOnUse">
<stop stop-color="#563D17"/>
<stop offset="0.461538" stop-color="#F4B14A"/>
<stop offset="1" stop-color="#FFDCA7"/>
</linearGradient>
<linearGradient id="paint5_linear_800_13361" x1="721.778" y1="206.679" x2="721.778" y2="1.69066e-06" gradientUnits="userSpaceOnUse">
<stop stop-color="#563D17"/>
<stop offset="0.461538" stop-color="#F4B14A"/>
<stop offset="1" stop-color="#FFDCA7"/>
</linearGradient>
<linearGradient id="paint6_linear_800_13361" x1="721.778" y1="206.679" x2="721.778" y2="1.69066e-06" gradientUnits="userSpaceOnUse">
<stop stop-color="#563D17"/>
<stop offset="0.461538" stop-color="#F4B14A"/>
<stop offset="1" stop-color="#FFDCA7"/>
</linearGradient>
<linearGradient id="paint7_linear_800_13361" x1="721.778" y1="206.679" x2="721.778" y2="1.69066e-06" gradientUnits="userSpaceOnUse">
<stop stop-color="#563D17"/>
<stop offset="0.461538" stop-color="#F4B14A"/>
<stop offset="1" stop-color="#FFDCA7"/>
</linearGradient>
<linearGradient id="paint8_linear_800_13361" x1="721.778" y1="206.679" x2="721.778" y2="1.69066e-06" gradientUnits="userSpaceOnUse">
<stop stop-color="#563D17"/>
<stop offset="0.461538" stop-color="#F4B14A"/>
<stop offset="1" stop-color="#FFDCA7"/>
</linearGradient>
<linearGradient id="paint9_linear_800_13361" x1="721.778" y1="206.679" x2="721.778" y2="1.69066e-06" gradientUnits="userSpaceOnUse">
<stop stop-color="#563D17"/>
<stop offset="0.461538" stop-color="#F4B14A"/>
<stop offset="1" stop-color="#FFDCA7"/>
</linearGradient>
<linearGradient id="paint10_linear_800_13361" x1="721.778" y1="206.679" x2="721.778" y2="1.69066e-06" gradientUnits="userSpaceOnUse">
<stop stop-color="#563D17"/>
<stop offset="0.461538" stop-color="#F4B14A"/>
<stop offset="1" stop-color="#FFDCA7"/>
</linearGradient>
</defs>
</svg>
